<?xml version="1.0" standalone="no"?>
<!DOCTYPE svg PUBLIC "-//W3C//DTD SVG 20010904//EN"
 "http://www.w3.org/TR/2001/REC-SVG-20010904/DTD/svg10.dtd">
<svg version="1.0" xmlns="http://www.w3.org/2000/svg"
 width="700.000000pt" height="700.000000pt" viewBox="0 0 700.000000 700.000000"
 preserveAspectRatio="xMidYMid meet">
<metadata>
Created by potrace 1.14, written by Peter Selinger 2001-2017
</metadata>
<g transform="translate(0.000000,700.000000) scale(0.100000,-0.100000)"
fill="#000000" stroke="none">
<path d="M0 3500 l0 -3500 3500 0 3500 0 0 3500 0 3500 -3500 0 -3500 0 0
-3500z m2110 1160 l0 -680 575 0 575 0 0 680 0 680 507 0 506 0 -6 -727 c-4
-401 -7 -1229 -7 -1840 l0 -1113 -500 0 -500 0 0 750 0 750 -575 0 -575 0 0
-750 0 -750 -498 0 -499 0 -6 592 c-4 326 -7 1154 -7 1841 l0 1247 505 0 505
0 0 -680z m3507 652 c132 -42 211 -119 253 -242 19 -56 22 -81 18 -185 -3
-103 -8 -128 -30 -176 -50 -108 -141 -179 -279 -216 -89 -24 -330 -24 -416 -1
-141 39 -223 100 -275 206 -33 66 -33 68 -33 207 0 122 3 147 23 196 46 116
150 195 291 225 102 21 367 13 448 -14z m137 -1204 c3 -18 30 -557 60 -1198
31 -641 58 -1184 61 -1207 l5 -43 -509 0 -509 0 4 38 c2 20 29 564 60 1207 30
644 57 1185 60 1203 l5 32 379 0 379 0 5 -32z"/>
</g>
</svg>
